<?xml version="1.0" standalone="no"?>
<!DOCTYPE svg PUBLIC "-//W3C//DTD SVG 20010904//EN"
 "http://www.w3.org/TR/2001/REC-SVG-20010904/DTD/svg10.dtd">
<svg version="1.0" xmlns="http://www.w3.org/2000/svg"
 width="700.000000pt" height="700.000000pt" viewBox="0 0 700.000000 700.000000"
 preserveAspectRatio="xMidYMid meet">
<metadata>
Created by potrace 1.14, written by Peter Selinger 2001-2017
</metadata>
<g transform="translate(0.000000,700.000000) scale(0.100000,-0.100000)"
fill="#000000" stroke="none">
<path d="M1400 5730 l0 -480 2100 0 2100 0 0 480 0 480 -2100 0 -2100 0 0
-480z"/>
<path d="M1430 4430 l0 -570 465 0 465 0 0 570 0 570 -465 0 -465 0 0 -570z"/>
<path d="M1390 3235 l0 -445 1385 0 1385 0 0 445 0 445 -1385 0 -1385 0 0
-445z"/>
<path d="M1430 1705 l0 -895 465 0 465 0 0 895 0 895 -465 0 -465 0 0 -895z"/>
</g>
</svg>
